<svg width="301" height="115" viewBox="0 0 301 115" fill="none" xmlns="http://www.w3.org/2000/svg">
<path fill-rule="evenodd" clip-rule="evenodd" d="M13.9011 0.361563C4.8651 2.20456 -1.1619 13.2346 2.0181 22.1076L2.7081 24.0306L1.3041 25.3546C-0.660897 27.2076 -0.373899 29.4416 1.9531 30.4046L3.1011 30.8806L3.0981 65.1326L3.0961 99.3836L1.8981 100.065C-0.636899 101.508 -0.560898 104.592 2.0351 105.613C2.7311 105.886 3.8411 106.612 4.5011 107.225C5.9661 108.587 9.7061 110.338 12.4511 110.947C13.8761 111.264 14.6181 111.666 14.9281 112.289C16.5221 115.486 19.7651 115.637 21.2211 112.582C21.6881 111.604 22.1991 111.19 23.1771 110.996C26.3491 110.368 29.8231 108.727 31.3471 107.136C31.9541 106.502 32.7671 105.984 33.1541 105.984C35.9921 105.984 36.9351 102.182 34.5681 100.283L33.1011 99.1056V65.2446V31.3836L34.5681 30.1526C36.9101 28.1856 36.5421 26.0776 33.5661 24.4116C33.0291 24.1116 33.0431 23.8506 33.6891 22.1606C38.2611 10.1866 26.9291 -2.29744 13.9011 0.361563ZM21.5411 1.61656C31.1781 4.68256 35.9161 14.5316 31.8441 23.0286L31.2901 24.1836H17.9301H4.5701L3.8981 22.9816C-1.9799 12.4596 10.0051 -2.05444 21.5411 1.61656ZM12.9891 4.52156C7.6171 7.65856 4.1971 15.3246 5.9401 20.3236C6.4851 21.8876 6.5271 21.8856 8.1351 20.2296C8.8781 19.4656 10.1151 18.7146 10.9761 18.5076C12.6401 18.1066 12.5721 18.3776 12.0411 14.2446C11.6821 11.4516 12.5361 8.41256 14.3571 6.00656C16.4681 3.21856 16.0321 2.74556 12.9891 4.52156ZM34.2971 26.5786C34.5801 26.9196 34.6831 27.6016 34.5381 28.1786L34.2861 29.1836H18.3731C1.9531 29.1836 1.5011 29.1406 1.5011 27.5836C1.5011 26.0276 1.9631 25.9836 18.1321 25.9836C31.5131 25.9836 33.8751 26.0706 34.2971 26.5786ZM31.1011 38.4856V44.1886L29.8011 44.7506C29.0861 45.0596 27.3711 45.8226 25.9911 46.4476C24.6101 47.0726 23.4011 47.5836 23.3031 47.5836C23.2051 47.5836 22.1741 48.0136 21.0131 48.5386C19.8511 49.0646 18.0011 49.8946 16.9011 50.3836C15.8011 50.8726 13.9511 51.7026 12.7891 52.2286C11.6281 52.7536 10.5971 53.1836 10.4991 53.1836C10.4011 53.1836 9.1421 53.7236 7.7011 54.3836C6.2601 55.0436 4.9911 55.5836 4.8801 55.5836C4.7701 55.5836 4.7291 52.9526 4.7901 49.7356L4.9011 43.8886L6.8541 43.1216C7.9281 42.7006 9.6381 41.9826 10.6541 41.5276C11.6701 41.0716 13.1311 40.4276 13.9011 40.0966C14.6711 39.7646 16.4341 38.9736 17.8191 38.3386C19.2041 37.7036 20.4141 37.1836 20.5071 37.1836C20.6011 37.1836 21.7181 36.7146 22.9891 36.1406C24.2611 35.5666 25.9311 34.8256 26.7011 34.4946C27.4711 34.1626 28.6411 33.6466 29.3011 33.3466C29.9611 33.0466 30.6361 32.7976 30.8011 32.7926C30.9661 32.7876 31.1011 35.3496 31.1011 38.4856ZM85.5011 36.7736C85.5011 36.9876 84.9611 38.3426 84.3011 39.7836C83.6411 41.2246 83.1011 42.4836 83.1011 42.5816C83.1011 42.6796 82.6711 43.7106 82.1461 44.8716C81.6201 46.0336 80.8311 47.7936 80.3911 48.7836C78.1721 53.7806 77.7771 54.6746 77.2931 55.7836C74.4701 62.2506 73.4751 64.0356 72.3271 64.6886C70.4021 65.7846 70.8281 65.9836 75.1011 65.9836C77.5011 65.9836 79.1011 65.8236 79.1011 65.5836C79.1011 65.3636 78.7691 65.1836 78.3631 65.1836C76.0981 65.1836 75.9801 63.2856 77.9711 58.8936L79.1091 56.3836H84.9151H90.7211L91.1371 57.4776C91.3661 58.0796 91.7861 59.1146 92.0711 59.7776C93.3271 62.7016 93.3881 62.9826 92.9721 63.9076C92.7331 64.4406 92.0791 64.9276 91.4291 65.0576C88.7501 65.5936 90.7181 65.9836 96.1011 65.9836C99.7011 65.9836 101.901 65.8316 101.901 65.5836C101.901 65.3636 101.56 65.1836 101.143 65.1836C99.9571 65.1836 98.7661 63.6516 97.2541 60.1806C96.4881 58.4226 95.5101 56.2206 95.0811 55.2876C94.6521 54.3556 94.3011 53.5056 94.3011 53.3996C94.3011 53.2936 93.8511 52.2116 93.3011 50.9956C92.7511 49.7786 91.8511 47.7886 91.3011 46.5716C90.7511 45.3556 90.3011 44.2796 90.3011 44.1816C90.3011 44.0836 89.7901 42.8746 89.1651 41.4936C88.5401 40.1136 87.7771 38.3986 87.4681 37.6836C86.9511 36.4876 85.5011 35.8176 85.5011 36.7736ZM203.901 36.7736C203.901 36.9876 203.361 38.3426 202.701 39.7836C202.041 41.2246 201.501 42.4836 201.501 42.5816C201.501 42.6796 201.071 43.7106 200.546 44.8716C200.02 46.0336 199.231 47.7936 198.791 48.7836C196.572 53.7806 196.177 54.6746 195.693 55.7836C192.87 62.2506 191.875 64.0356 190.727 64.6886C188.802 65.7846 189.228 65.9836 193.501 65.9836C195.901 65.9836 197.501 65.8236 197.501 65.5836C197.501 65.3636 197.169 65.1836 196.763 65.1836C194.498 65.1836 194.38 63.2856 196.371 58.8936L197.509 56.3836H203.315H209.121L209.537 57.4776C209.766 58.0796 210.186 59.1146 210.471 59.7776C211.727 62.7016 211.788 62.9826 211.372 63.9076C211.133 64.4406 210.479 64.9276 209.829 65.0576C207.15 65.5936 209.118 65.9836 214.501 65.9836C218.101 65.9836 220.301 65.8316 220.301 65.5836C220.301 65.3636 219.96 65.1836 219.543 65.1836C218.357 65.1836 217.166 63.6516 215.654 60.1806C214.888 58.4226 213.91 56.2206 213.481 55.2876C213.052 54.3556 212.701 53.5056 212.701 53.3996C212.701 53.2936 212.251 52.2116 211.701 50.9956C211.151 49.7786 210.251 47.7886 209.701 46.5716C209.151 45.3556 208.701 44.2796 208.701 44.1816C208.701 44.0836 208.19 42.8746 207.565 41.4936C206.94 40.1136 206.177 38.3986 205.868 37.6836C205.351 36.4876 203.901 35.8176 203.901 36.7736ZM283.101 36.7736C283.101 36.9876 282.561 38.3426 281.901 39.7836C281.241 41.2246 280.701 42.4836 280.701 42.5816C280.701 42.6796 280.271 43.7106 279.746 44.8716C279.22 46.0336 278.431 47.7936 277.991 48.7836C275.772 53.7806 275.377 54.6746 274.893 55.7836C272.07 62.2506 271.075 64.0356 269.927 64.6886C268.002 65.7846 268.428 65.9836 272.701 65.9836C275.101 65.9836 276.701 65.8236 276.701 65.5836C276.701 65.3636 276.369 65.1836 275.963 65.1836C273.698 65.1836 273.58 63.2856 275.571 58.8936L276.709 56.3836H282.515H288.321L288.737 57.4776C288.966 58.0796 289.386 59.1146 289.671 59.7776C290.927 62.7016 290.988 62.9826 290.572 63.9076C290.333 64.4406 289.679 64.9276 289.029 65.0576C286.35 65.5936 288.318 65.9836 293.701 65.9836C297.301 65.9836 299.501 65.8316 299.501 65.5836C299.501 65.3636 299.16 65.1836 298.743 65.1836C297.557 65.1836 296.366 63.6516 294.854 60.1806C294.088 58.4226 293.11 56.2206 292.681 55.2876C292.252 54.3556 291.901 53.5056 291.901 53.3996C291.901 53.2936 291.451 52.2116 290.901 50.9956C290.351 49.7786 289.451 47.7886 288.901 46.5716C288.351 45.3556 287.901 44.2796 287.901 44.1816C287.901 44.0836 287.39 42.8746 286.765 41.4936C286.14 40.1136 285.377 38.3986 285.068 37.6836C284.551 36.4876 283.101 35.8176 283.101 36.7736ZM45.1011 37.5836C45.1011 37.8036 45.4371 37.9836 45.8471 37.9836C46.2571 37.9836 47.0671 38.3566 47.6471 38.8126L48.7011 39.6416V51.7666V63.8916L47.7151 64.5376C47.1731 64.8926 46.3631 65.1836 45.9151 65.1836C45.4671 65.1836 45.1011 65.3636 45.1011 65.5836C45.1011 66.1926 61.3421 66.0966 63.1191 65.4776C70.2401 62.9956 71.1811 54.7876 64.6751 51.9076C63.1961 51.2536 63.2051 51.2096 65.1061 49.8946C70.2331 46.3496 68.0021 39.6146 61.0911 37.7756C58.4941 37.0846 45.1011 36.9236 45.1011 37.5836ZM103.901 37.5836C103.901 37.8036 104.216 37.9846 104.601 37.9856C104.986 37.9866 105.841 38.4196 106.501 38.9466L107.701 39.9066L107.829 50.0446C107.999 63.4306 107.651 65.1836 104.826 65.1836C104.317 65.1836 103.901 65.3636 103.901 65.5836C103.901 65.8326 106.168 65.9836 109.901 65.9836C115.478 65.9836 117.414 65.6126 114.801 65.0446C112.526 64.5496 112.501 64.4776 112.501 58.2986V52.5836H113.698C114.905 52.5836 115.531 53.2746 124.823 64.8796C125.666 65.9326 125.85 65.9766 129.401 65.9796C133.645 65.9846 133.852 65.7736 130.978 64.3696C129.261 63.5316 128.155 62.4316 124.601 58.0356C120.078 52.4386 119.88 52.0926 121.001 51.7346C129.233 49.1036 129.133 40.2966 120.844 37.7816C118.53 37.0796 103.901 36.9086 103.901 37.5836ZM135.901 37.5836C135.901 37.8036 136.325 37.9836 136.843 37.9836C137.36 37.9836 138.26 38.4246 138.843 38.9646L139.901 39.9456V51.5826V63.2196L138.919 64.2016C138.379 64.7416 137.479 65.1836 136.919 65.1836C136.359 65.1836 135.901 65.3636 135.901 65.5836C135.901 66.4316 152.41 66.0816 154.812 65.1826C161.404 62.7156 161.723 53.3596 155.27 51.7406C153.99 51.4186 154.048 51.0906 155.496 50.4496C158.904 48.9416 159.822 43.2936 157.119 40.4656C155.799 39.0846 154.152 38.2626 151.424 37.6236C149.033 37.0636 135.901 37.0296 135.901 37.5836ZM163.101 37.5336C163.101 37.7266 163.635 37.9906 164.289 38.1216C167.102 38.6836 167.101 38.6786 167.101 51.6016V63.2196L166.119 64.2016C165.579 64.7416 164.679 65.1836 164.119 65.1836C163.559 65.1836 163.101 65.3636 163.101 65.5836C163.101 65.8406 167.208 65.9836 174.622 65.9836H186.143L187.022 63.1706C188.27 59.1766 188.066 57.6426 186.667 60.4926C185.297 63.2846 183.235 64.1676 177.743 64.3146C171.519 64.4816 171.848 64.8686 171.99 57.5286L172.101 51.7836L175.901 51.6826C180.267 51.5656 181.424 51.9666 182.273 53.8886C183.232 56.0586 183.501 55.3776 183.501 50.7836C183.501 46.5406 183.048 45.0916 182.501 47.5836C182.059 49.5966 181.043 49.9836 176.201 49.9836H171.878L171.99 44.4836L172.101 38.9836L176.304 38.8706C181.667 38.7276 183.386 39.2546 184.513 41.3876C186.071 44.3386 186.617 42.7766 185.668 38.0836L185.486 37.1836H174.293C168.138 37.1836 163.101 37.3416 163.101 37.5336ZM222.301 37.5836C222.301 37.8036 222.616 37.9846 223.001 37.9856C223.386 37.9866 224.241 38.4196 224.901 38.9466L226.101 39.9066L226.229 50.0446C226.399 63.4306 226.051 65.1836 223.226 65.1836C222.717 65.1836 222.301 65.3636 222.301 65.5836C222.301 65.8326 224.568 65.9836 228.301 65.9836C233.878 65.9836 235.814 65.6126 233.201 65.0446C230.926 64.5496 230.901 64.4776 230.901 58.2986V52.5836H232.098C233.305 52.5836 233.931 53.2746 243.223 64.8796C244.066 65.9326 244.25 65.9766 247.801 65.9796C252.045 65.9846 252.252 65.7736 249.378 64.3696C247.661 63.5316 246.555 62.4316 243.001 58.0356C238.478 52.4386 238.28 52.0926 239.401 51.7346C247.633 49.1036 247.533 40.2966 239.244 37.7816C236.93 37.0796 222.301 36.9086 222.301 37.5836ZM254.301 37.5336C254.301 37.7266 254.827 37.9886 255.47 38.1176C258.267 38.6766 258.301 38.8386 258.301 51.6776V63.2196L257.319 64.2016C256.779 64.7416 255.879 65.1836 255.319 65.1836C254.759 65.1836 254.301 65.3636 254.301 65.5836C254.301 65.8336 256.701 65.9836 260.701 65.9836C264.701 65.9836 267.101 65.8336 267.101 65.5836C267.101 65.3636 266.645 65.1836 266.087 65.1836C265.529 65.1836 264.629 64.8926 264.087 64.5376L263.101 63.8916V51.5476V39.2046L264.281 38.5936C264.93 38.2586 265.83 37.9836 266.281 37.9836C266.732 37.9836 267.101 37.8036 267.101 37.5836C267.101 37.3336 264.701 37.1836 260.701 37.1836C257.181 37.1836 254.301 37.3416 254.301 37.5336ZM59.4211 39.3456C62.9331 41.1736 63.8901 45.4556 61.4731 48.5286C60.6741 49.5446 57.1951 50.9076 56.1881 50.5996C55.9201 50.5176 55.2061 50.3416 54.6011 50.2096L53.5011 49.9686V44.6426C53.5011 41.7136 53.6211 39.1966 53.7681 39.0506C54.2551 38.5626 58.3241 38.7746 59.4211 39.3456ZM118.273 39.3696C122.555 41.5836 122.721 47.8046 118.558 50.0676C117.518 50.6326 113.632 51.2086 112.859 50.9116C111.766 50.4926 112.08 39.8126 113.201 39.2716C114.502 38.6446 116.963 38.6916 118.273 39.3696ZM150.656 39.5606C156.794 42.6926 153.367 51.5446 146.45 50.4226L144.901 50.1706L144.79 44.4776L144.679 38.7836H146.906C148.321 38.7836 149.688 39.0666 150.656 39.5606ZM236.673 39.3696C240.955 41.5836 241.121 47.8046 236.958 50.0676C235.918 50.6326 232.032 51.2086 231.259 50.9116C230.166 50.4926 230.48 39.8126 231.601 39.2716C232.902 38.6446 235.363 38.6916 236.673 39.3696ZM85.5011 44.3716C85.5011 44.5856 85.9511 45.7556 86.5011 46.9716C87.0511 48.1886 87.9511 50.1786 88.5011 51.3956C90.0731 54.8726 90.1671 54.7836 84.9251 54.7836C79.7441 54.7836 79.7151 54.7676 80.7201 52.5836C82.8251 48.0116 83.9011 45.5316 83.9011 45.2536C83.9011 44.8476 84.7721 43.9836 85.1811 43.9836C85.3571 43.9836 85.5011 44.1586 85.5011 44.3716ZM203.901 44.3716C203.901 44.5856 204.351 45.7556 204.901 46.9716C205.451 48.1886 206.351 50.1786 206.901 51.3956C208.473 54.8726 208.567 54.7836 203.325 54.7836C198.144 54.7836 198.115 54.7676 199.12 52.5836C201.225 48.0116 202.301 45.5316 202.301 45.2536C202.301 44.8476 203.172 43.9836 203.581 43.9836C203.757 43.9836 203.901 44.1586 203.901 44.3716ZM283.101 44.3716C283.101 44.5856 283.551 45.7556 284.101 46.9716C284.651 48.1886 285.551 50.1786 286.101 51.3956C287.673 54.8726 287.767 54.7836 282.525 54.7836C277.344 54.7836 277.315 54.7676 278.32 52.5836C280.425 48.0116 281.501 45.5316 281.501 45.2536C281.501 44.8476 282.372 43.9836 282.781 43.9836C282.957 43.9836 283.101 44.1586 283.101 44.3716ZM60.2531 52.9616C67.5991 56.7846 61.9341 67.1336 54.1341 64.1406C53.4551 63.8806 53.1481 52.8796 53.8011 52.2096C54.2361 51.7626 59.0211 52.3216 60.2531 52.9616ZM151.615 53.2826C157.662 56.6726 154.653 64.6436 147.454 64.3036L144.901 64.1836L144.789 58.6026C144.728 55.5336 144.777 52.7636 144.898 52.4466C145.223 51.6006 149.58 52.1426 151.615 53.2826ZM31.1011 64.5966V69.6106L28.0991 70.9966C26.4481 71.7596 25.0141 72.3836 24.9111 72.3836C24.8091 72.3836 23.6841 72.8526 22.4131 73.4266C21.1411 74.0006 19.5161 74.7206 18.8011 75.0266C15.5171 76.4336 14.7871 76.7496 13.1011 77.4956C12.1111 77.9336 10.4011 78.6906 9.3011 79.1766C8.2011 79.6626 6.8171 80.2936 6.2251 80.5796C4.7251 81.3026 4.7011 81.2276 4.7011 75.8146V70.9786L6.0011 70.4406C8.3731 69.4596 11.5871 68.0506 15.8131 66.1386C16.9741 65.6136 18.0041 65.1836 18.1011 65.1836C18.1981 65.1836 19.2731 64.7336 20.4891 64.1836C21.7061 63.6336 23.7361 62.7236 25.0011 62.1616C26.2661 61.6006 28.0211 60.7996 28.9011 60.3816C29.7811 59.9646 30.6361 59.6146 30.8011 59.6036C30.9661 59.5926 31.1011 61.8396 31.1011 64.5966ZM44.0741 76.1106C43.9621 76.4006 43.9231 78.5156 43.9861 80.8106L44.1011 84.9836L46.6411 85.1036C50.6191 85.2916 52.5511 83.0496 50.4301 80.7056C49.9161 80.1376 49.8701 79.8546 50.2301 79.4946C50.9731 78.7516 50.7811 77.2896 49.8261 76.3996C48.7741 75.4196 44.4231 75.2006 44.0741 76.1106ZM59.2521 76.2836C59.1291 76.6686 58.8831 77.3436 58.7051 77.7836C56.8461 82.3856 56.0171 84.7656 56.2061 84.9556C56.7021 85.4516 57.1431 85.1226 57.7821 83.7836C58.4031 82.4816 58.5781 82.3836 60.3011 82.3836C62.0241 82.3836 62.1991 82.4816 62.8201 83.7836C63.4231 85.0466 65.0631 85.8816 64.5891 84.6836C62.0291 78.2136 61.3121 76.5006 60.9901 76.0836C60.4321 75.3626 59.5131 75.4686 59.2521 76.2836ZM70.0741 76.1106C69.6581 77.1946 70.0921 84.9156 70.5781 85.0766C70.8931 85.1816 71.0971 84.5806 71.1781 83.3096C71.3801 80.1446 73.6451 80.3266 75.7601 83.6776C76.6771 85.1306 77.9131 85.7136 77.8901 84.6836C77.8841 84.4086 77.3361 83.4666 76.6741 82.5906L75.4681 80.9976L76.4851 80.2576C77.8821 79.2396 77.8981 77.1356 76.5151 76.2296C75.2601 75.4076 70.3781 75.3166 70.0741 76.1106ZM83.7681 75.8506C83.6211 75.9966 83.5011 78.1566 83.5011 80.6506V85.1836L86.2011 85.1706C90.0041 85.1526 91.7041 83.3736 90.1641 81.0236C89.6531 80.2436 89.6231 79.8436 90.0021 78.8396C90.8681 76.5466 85.5981 74.0196 83.7681 75.8506ZM98.5341 76.8526C95.6331 83.8436 95.2281 85.1836 96.0191 85.1836C96.3131 85.1836 96.8531 84.5536 97.2201 83.7836C98.3001 81.5186 101.92 81.7976 102.363 84.1786C102.542 85.1476 103.901 85.5256 103.901 84.6076C103.901 84.2586 103.742 83.6606 103.548 83.2786C102.981 82.1646 102.368 80.7506 101.339 78.1836C100.205 75.3546 99.3281 74.9386 98.5341 76.8526ZM126.169 76.4016C124.1 78.0286 123.902 82.2756 125.806 84.1796C127.758 86.1316 132.701 84.9476 132.701 82.5286C132.701 81.6386 131.643 81.9076 130.942 82.9776C128.825 86.2076 124.619 82.8686 125.903 78.9766C126.704 76.5496 130.167 75.7276 130.954 77.7776C131.252 78.5526 132.301 78.5696 132.301 77.7996C132.301 75.7636 128.175 74.8236 126.169 76.4016ZM140.676 76.4306C140.236 77.2516 138.045 83.0266 137.604 84.5236C137.439 85.0866 137.567 85.2296 138.139 85.1196C138.553 85.0396 138.958 84.6166 139.039 84.1786C139.482 81.7976 143.102 81.5186 144.182 83.7836C144.794 85.0676 145.901 85.7186 145.901 84.7936C145.901 84.3616 143.783 78.9166 142.823 76.8836C142.116 75.3846 141.325 75.2176 140.676 76.4306ZM151.101 80.3836V85.1836H153.831C157.676 85.1836 159.378 83.2996 157.699 80.9026C157.25 80.2616 157.197 79.7836 157.488 79.0176C158.337 76.7856 157.005 75.6136 153.601 75.5966L151.101 75.5836V80.3836ZM164.074 76.1106C163.962 76.4006 163.923 78.5156 163.986 80.8106L164.101 84.9836L167.64 85.0996C170.39 85.1896 171.14 85.1006 171.008 84.6996C170.897 84.3636 169.901 84.1426 168.146 84.0646L165.455 83.9456L165.578 82.4646L165.701 80.9836L168.009 80.7836C171.042 80.5206 170.962 79.8156 167.881 79.6636L165.453 79.5446L165.577 78.2636C165.7 76.9936 165.721 76.9816 168.27 76.7836C169.815 76.6636 170.904 76.3846 171.003 76.0836C171.245 75.3486 164.356 75.3756 164.074 76.1106ZM176.886 76.0776C176.768 76.3856 176.723 78.5156 176.786 80.8106L176.901 84.9836L179.84 85.1016C183.369 85.2436 183.879 84.2676 180.383 84.0636L178.329 83.9426L178.215 79.8956C178.107 76.0766 177.527 74.4086 176.886 76.0776ZM189.839 76.4856C186.196 79.5646 187.953 85.1836 192.559 85.1836C195.817 85.1836 197.661 82.3496 196.708 78.8096C195.897 75.7976 192.152 74.5306 189.839 76.4856ZM211.696 76.5346C211.186 77.3126 211.16 77.6766 211.553 78.5386C211.97 79.4526 211.919 79.7126 211.167 80.5136C208.694 83.1456 211.979 86.6406 215.096 84.6936C215.716 84.3066 215.984 84.3066 216.371 84.6936C217.086 85.4086 217.501 85.2946 217.501 84.3836C217.501 83.9436 217.301 83.5836 217.058 83.5836C216.782 83.5836 216.711 83.1976 216.87 82.5656C217.203 81.2366 216.812 80.5936 216.053 81.2236C215.593 81.6056 215.36 81.5486 214.901 80.9426C214.148 79.9476 214.159 79.8356 215.101 78.9836C216.097 78.0826 216.122 77.1076 215.17 76.2456C214.09 75.2686 212.435 75.4066 211.696 76.5346ZM231.101 80.3836V85.1836H233.831C237.676 85.1836 239.378 83.2996 237.699 80.9026C237.25 80.2616 237.197 79.7836 237.488 79.0176C238.337 76.7856 237.005 75.6136 233.601 75.5966L231.101 75.5836V80.3836ZM244.086 76.0776C243.502 77.5996 244.096 84.9736 244.814 85.1106C245.717 85.2836 245.704 75.9826 244.801 75.6826C244.526 75.5916 244.205 75.7696 244.086 76.0776ZM253.068 76.6966C249.691 79.7136 251.775 85.1836 256.301 85.1836C260.586 85.1836 262.378 80.7296 258.201 80.4616C256.015 80.3216 255.63 80.9866 257.6 81.4976C259.433 81.9726 259.511 83.0526 257.766 83.7826C255.222 84.8446 252.701 83.1536 252.701 80.3836C252.701 77.0966 256.279 75.5046 258.554 77.7796C259.315 78.5406 259.901 78.5546 259.901 77.8126C259.901 75.6046 255.157 74.8306 253.068 76.6966ZM267.439 76.4856C263.796 79.5646 265.553 85.1836 270.159 85.1836C273.417 85.1836 275.261 82.3496 274.308 78.8096C273.497 75.7976 269.752 74.5306 267.439 76.4856ZM280.474 76.1106C280.362 76.4006 280.323 78.5156 280.386 80.8106L280.501 84.9836L282.663 85.1066C287.256 85.3676 289.721 81.5316 287.557 77.4886C286.612 75.7226 281.039 74.6386 280.474 76.1106ZM294.074 76.1106C293.962 76.4006 293.923 78.5156 293.986 80.8106L294.101 84.9836H297.401C301.411 84.9836 301.846 84.2676 298.007 83.9836L295.301 83.7836V82.3836V80.9836L297.801 80.8646C299.625 80.7776 300.301 80.5936 300.301 80.1836C300.301 79.7736 299.625 79.5896 297.801 79.5026C295.316 79.3846 295.301 79.3766 295.301 78.1836C295.301 76.9956 295.327 76.9816 297.87 76.7836C299.415 76.6636 300.504 76.3846 300.603 76.0836C300.845 75.3496 294.355 75.3766 294.074 76.1106ZM193.454 76.8276C196.256 77.8036 196.514 82.4326 193.845 83.8126C192.831 84.3366 192.415 84.3626 191.445 83.9606C188.415 82.7056 188.906 77.3716 192.141 76.3956C192.163 76.3886 192.754 76.5836 193.454 76.8276ZM214.228 77.7146C214.318 78.4796 214.173 78.7836 213.715 78.7836C212.958 78.7836 212.517 77.8406 212.858 76.9506C213.22 76.0086 214.083 76.4896 214.228 77.7146ZM271.054 76.8276C273.856 77.8036 274.114 82.4326 271.445 83.8126C270.431 84.3366 270.015 84.3626 269.045 83.9606C266.015 82.7056 266.506 77.3716 269.741 76.3956C269.763 76.3886 270.354 76.5836 271.054 76.8276ZM48.9251 77.3606C50.1291 78.2546 49.2261 79.3536 47.1601 79.5066C45.5691 79.6246 45.5011 79.5826 45.5011 78.4736C45.5011 76.6656 47.2311 76.1026 48.9251 77.3606ZM75.6371 77.3766C76.9381 78.6776 76.0021 79.6316 73.5531 79.5016C71.2481 79.3806 70.6821 78.8526 71.2551 77.3606C71.5561 76.5756 74.8481 76.5876 75.6371 77.3766ZM88.2361 77.1346C89.5571 77.9726 88.5871 79.3776 86.6011 79.5056C84.7451 79.6246 84.7011 79.6006 84.7011 78.4726C84.7011 76.8046 86.5891 76.0906 88.2361 77.1346ZM156.072 77.4116C157.116 78.4566 156.202 79.5836 154.311 79.5836C152.54 79.5836 152.118 79.1656 152.471 77.7606C152.765 76.5886 155.029 76.3686 156.072 77.4116ZM236.072 77.4116C237.116 78.4566 236.202 79.5836 234.311 79.5836C232.54 79.5836 232.118 79.1656 232.471 77.7606C232.765 76.5886 235.029 76.3686 236.072 77.4116ZM285.253 77.1656C287.583 78.0506 287.367 83.2006 284.976 83.8006C282.217 84.4926 281.712 84.0486 281.582 80.8206C281.415 76.6426 282.095 75.9646 285.253 77.1656ZM61.0211 78.9116C61.7281 80.8676 61.6271 81.1836 60.3011 81.1836C59.6411 81.1836 59.1011 80.9716 59.1011 80.7116C59.1011 79.9996 60.0281 77.5836 60.3011 77.5836C60.4331 77.5836 60.7561 78.1816 61.0211 78.9116ZM100.417 79.0836C101.144 80.8996 101.011 81.1836 99.4311 81.1836C98.3461 81.1836 98.2391 81.0816 98.4871 80.2836C98.6401 79.7886 98.8621 78.9786 98.9801 78.4836C99.2891 77.1866 99.7301 77.3716 100.417 79.0836ZM142.403 78.8836C142.51 79.3786 142.731 80.0986 142.892 80.4836C143.141 81.0756 142.963 81.1836 141.736 81.1836C140.357 81.1836 140.299 81.1296 140.549 80.0836C141.045 78.0056 142.069 77.3426 142.403 78.8836ZM49.2721 81.4126C50.6401 82.7796 49.5421 83.9836 46.9271 83.9836C45.5331 83.9836 44.7691 82.0496 45.7681 81.0506C46.2761 80.5416 48.6471 80.7866 49.2721 81.4126ZM88.6811 81.4876C90.3171 82.8116 88.7831 84.2276 86.0491 83.9146C84.8771 83.7806 84.3561 82.6606 84.8571 81.3546C85.1661 80.5476 87.6261 80.6326 88.6811 81.4876ZM155.801 81.0356C156.885 81.3256 157.085 83.3506 156.068 83.7406C154.632 84.2916 152.76 83.9996 152.501 83.1836C151.865 81.1786 153.169 80.3306 155.801 81.0356ZM213.775 81.6536C214.844 82.6576 214.938 83.2886 214.12 83.9676C212.733 85.1196 210.737 82.7866 211.905 81.3786C212.549 80.6026 212.677 80.6216 213.775 81.6536ZM235.801 81.0356C236.885 81.3256 237.085 83.3506 236.068 83.7406C234.632 84.2916 232.76 83.9996 232.501 83.1836C231.865 81.1786 233.169 80.3306 235.801 81.0356ZM109.501 84.5596C109.501 84.8766 109.673 85.2426 109.884 85.3726C110.094 85.5026 110.171 85.9186 110.056 86.2966C109.94 86.6746 110.109 86.5426 110.43 86.0036C110.752 85.4646 110.925 84.7896 110.815 84.5036C110.544 83.7976 109.501 83.8416 109.501 84.5596ZM31.1011 89.9376V94.6906L28.8011 95.6026C27.5361 96.1036 26.3211 96.6356 26.1011 96.7836C23.5861 98.4766 21.3681 98.8016 13.0941 98.6926L4.9011 98.5836L4.7821 97.5636C4.6531 96.4536 4.3741 96.6186 11.9011 93.3606C13.7711 92.5506 16.1111 91.5306 17.1011 91.0936C18.7891 90.3486 19.5431 90.0226 22.8011 88.6266C26.6541 86.9766 28.9661 85.9326 29.5011 85.6016C30.9691 84.6936 31.1011 85.0506 31.1011 89.9376ZM34.2971 101.779C34.5801 102.12 34.6831 102.802 34.5381 103.379L34.2861 104.384H18.3731C1.9531 104.384 1.5011 104.341 1.5011 102.784C1.5011 101.228 1.9631 101.184 18.1321 101.184C31.5131 101.184 33.8751 101.271 34.2971 101.779ZM30.3011 106.137C30.3011 107.796 23.2531 109.974 17.8671 109.98C12.3761 109.985 4.7771 107.479 5.7101 105.97C6.1241 105.3 30.3011 105.464 30.3011 106.137ZM19.7581 111.389C20.1021 112.284 19.1601 113.184 17.8791 113.184C16.7401 113.184 15.9611 112.057 16.4991 111.188C16.8991 110.539 19.4941 110.7 19.7581 111.389Z" fill="#121212"/>
</svg>
